<?xml version="1.0" encoding="UTF-8"?>
<svg xmlns="http://www.w3.org/2000/svg" width="577.12" height="169.071" viewBox="0 0 577.12 169.071">
  <g transform="translate(-235.842 -30.66)">
    <path d="M20.21-29.971H5.16L2.322-14.147l3.139.172a7.317,7.317,0,0,1,5.676-2.881,6.6,6.6,0,0,1,6.88,6.923c0,4.859-2.967,7.224-6.45,7.224-3.655,0-6.192-2.365-6.407-5.5H1.5C1.634-2.709,5.934.516,11.223.516c7.1,0,10.664-4.988,10.664-10.148,0-6.966-4.429-10.449-9.847-10.449a7.713,7.713,0,0,0-5.676,2.193l-.086-.086,1.634-8.772h12.3Zm5.5,15.007c0,6.708.6,15.48,10.148,15.48S46.01-8.256,46.01-14.964c0-6.751-.6-15.523-10.148-15.523S25.714-21.715,25.714-14.964Zm3.87-.043c0-4.515.043-12.255,6.278-12.255s6.278,7.74,6.278,12.255c0,4.558-.043,12.3-6.278,12.3S29.584-10.449,29.584-15.007ZM58.136,0h4.085V-27.262H72.455V-30.7H47.9v3.44H58.136ZM75.852,0h4.085V-14.061H96.105V0h4.085V-30.7H96.105v13.2H79.937V-30.7H75.852ZM115.2,0h4.214l3.44-9.245h12.986L139.191,0h4.515l-12-30.7h-4.515Zm14.147-27h.086l5.117,14.319H124.141ZM146.673,0h3.87V-24.639h.086L166.668,0h4.472V-30.7h-3.87v24.9h-.086L151.016-30.7h-4.343Zm31.046,0h3.87V-24.639h.086L197.714,0h4.472V-30.7h-3.87v24.9h-.086L182.062-30.7h-4.343ZM208.98,0h4.085V-30.7H208.98Zm33.97-30.7h-4.257L229.835-4.085h-.086L220.977-30.7h-4.429L227.384,0h4.644ZM246.218,0h21.328V-3.44H250.3V-14.061h15.953V-17.5H250.3v-9.761h17.114V-30.7h-21.2Zm30.358-16.555V-27.262h10.148c3.827,0,5.461,2.236,5.461,5.246,0,4.472-3.268,5.461-7.1,5.461ZM272.491,0h4.085V-13.115h9.976c3.956,0,4.687,2.537,5.117,5.547.6,3.01-.043,6.321,1.118,7.568h4.558c-1.72-2.107-1.548-5.461-1.806-8.471-.3-3.01-1.032-5.633-4.6-6.321v-.086c3.7-1.032,5.332-4.085,5.332-7.783,0-4.9-3.569-8.041-9.331-8.041H272.491Zm51.084-21.715c-.258-6.751-5.031-9.718-11.309-9.718-5.59,0-11.137,2.752-11.137,8.987,0,5.633,4.945,7.052,9.847,8.127s9.8,1.806,9.8,6.02c0,4.429-4.085,5.59-7.783,5.59-4.644,0-8.944-2.236-8.944-7.4h-3.87c0,7.482,5.8,10.836,12.685,10.836,5.59,0,12-2.623,12-9.159,0-6.02-4.9-7.74-9.8-8.858-4.945-1.118-9.847-1.677-9.847-5.461,0-4,3.44-5.246,6.88-5.246,4.214,0,7.138,1.892,7.611,6.278ZM326.155,0h4.214l3.44-9.245h12.986L350.149,0h4.515l-12-30.7h-4.515ZM340.3-27h.086l5.117,14.319H335.1Zm21.457,10.449V-27.262h10.148c3.827,0,5.461,2.236,5.461,5.246,0,4.472-3.268,5.461-7.1,5.461ZM357.674,0h4.085V-13.115h9.976c3.956,0,4.687,2.537,5.117,5.547.6,3.01-.043,6.321,1.118,7.568h4.558c-1.72-2.107-1.548-5.461-1.806-8.471-.3-3.01-1.032-5.633-4.6-6.321v-.086c3.7-1.032,5.332-4.085,5.332-7.783,0-4.9-3.569-8.041-9.331-8.041H357.674Zm52.288-30.7h-4.644l-8.987,14.62-9.2-14.62H382.27l11.868,18.146V0h4.085V-12.556Z" transform="translate(403 199)"></path>
    <path d="M-.158,0,15.8-113.76H133.51L129.4-84.846H59.724L57.512-70.152h63.516L117.552-45.03H54.036L51.824-28.914H123.24L119.132,0ZM201.134-28.6q17.7,0,27.018-16.748L274.6-40.132q-7.11,20.066-27.887,32.153T196.868,4.108q-34.444,0-53.009-16.669T128.928-54.036l.474-3.16q3.792-24.964,26.86-41.554t57.512-16.59q28.914,0,46.294,12.087t18.96,32l-47.874,5.214q-4.74-16.59-22.436-16.59a28.955,28.955,0,0,0-20.145,7.505A28.9,28.9,0,0,0,178.856-57.2l-.474,3.16a21.672,21.672,0,0,0,4.661,17.854Q189.284-28.6,201.134-28.6ZM367.824,0l-4.266-16.748h-45.03L309.68,0H261.648l66.044-113.76h56.88L419.806,0ZM332.432-42.976h24.016l-7.9-30.652Zm111.39-70.784H491.7L475.738,0H427.864Z" transform="translate(236 146)"></path>
  </g>
</svg>
